<mxfile host="65bd71144e">
    <diagram id="2_2aoJYSnQ4qfNAZvBc7" name="ページ1">
        <mxGraphModel dx="396" dy="300" grid="1" gridSize="10" guides="1" tooltips="1" connect="1" arrows="1" fold="1" page="1" pageScale="1" pageWidth="827" pageHeight="1169" math="0" shadow="0">
            <root>
                <mxCell id="0"/>
                <mxCell id="1" parent="0"/>
                <mxCell id="39" value="" style="group" vertex="1" connectable="0" parent="1">
                    <mxGeometry x="295" y="320" width="182" height="220" as="geometry"/>
                </mxCell>
                <mxCell id="12" style="edgeStyle=none;html=1;exitX=0.5;exitY=0;exitDx=0;exitDy=0;endArrow=open;endFill=0;" edge="1" parent="39" source="7">
                    <mxGeometry relative="1" as="geometry">
                        <mxPoint x="155" y="98.66666666666663" as="targetPoint"/>
                    </mxGeometry>
                </mxCell>
                <mxCell id="18" style="edgeStyle=none;html=1;exitX=1;exitY=0.5;exitDx=0;exitDy=0;endArrow=none;endFill=0;startArrow=open;startFill=0;" edge="1" parent="39" source="7">
                    <mxGeometry relative="1" as="geometry">
                        <mxPoint x="95" y="190" as="targetPoint"/>
                    </mxGeometry>
                </mxCell>
                <mxCell id="7" value="" style="shape=trapezoid;perimeter=trapezoidPerimeter;whiteSpace=wrap;html=1;fixedSize=1;rotation=90;" vertex="1" parent="39">
                    <mxGeometry x="18.75" y="68.75" width="152.5" height="60" as="geometry"/>
                </mxCell>
                <mxCell id="8" value="" style="endArrow=open;html=1;entryX=0.25;entryY=1;entryDx=0;entryDy=0;endFill=0;" edge="1" parent="39">
                    <mxGeometry width="50" height="50" relative="1" as="geometry">
                        <mxPoint x="35" y="40" as="sourcePoint"/>
                        <mxPoint x="65" y="40" as="targetPoint"/>
                    </mxGeometry>
                </mxCell>
                <mxCell id="9" value="" style="endArrow=open;html=1;entryX=0.25;entryY=1;entryDx=0;entryDy=0;endFill=0;" edge="1" parent="39">
                    <mxGeometry width="50" height="50" relative="1" as="geometry">
                        <mxPoint x="35" y="80" as="sourcePoint"/>
                        <mxPoint x="65" y="80" as="targetPoint"/>
                    </mxGeometry>
                </mxCell>
                <mxCell id="10" value="" style="endArrow=open;html=1;entryX=0.25;entryY=1;entryDx=0;entryDy=0;endFill=0;" edge="1" parent="39">
                    <mxGeometry width="50" height="50" relative="1" as="geometry">
                        <mxPoint x="35" y="120" as="sourcePoint"/>
                        <mxPoint x="65" y="120" as="targetPoint"/>
                    </mxGeometry>
                </mxCell>
                <mxCell id="11" value="" style="endArrow=open;html=1;entryX=0.25;entryY=1;entryDx=0;entryDy=0;endFill=0;" edge="1" parent="39">
                    <mxGeometry width="50" height="50" relative="1" as="geometry">
                        <mxPoint x="35" y="160" as="sourcePoint"/>
                        <mxPoint x="65" y="160" as="targetPoint"/>
                    </mxGeometry>
                </mxCell>
                <mxCell id="13" value="mux4" style="text;html=1;align=center;verticalAlign=middle;resizable=0;points=[];autosize=1;strokeColor=none;fillColor=none;fontSize=16;fontFamily=Courier New;" vertex="1" parent="39">
                    <mxGeometry x="65" width="60" height="30" as="geometry"/>
                </mxCell>
                <mxCell id="14" value="d0" style="text;html=1;align=center;verticalAlign=middle;resizable=0;points=[];autosize=1;strokeColor=none;fillColor=none;fontSize=16;fontFamily=Courier New;" vertex="1" parent="39">
                    <mxGeometry y="25" width="40" height="30" as="geometry"/>
                </mxCell>
                <mxCell id="15" value="d1" style="text;html=1;align=center;verticalAlign=middle;resizable=0;points=[];autosize=1;strokeColor=none;fillColor=none;fontSize=16;fontFamily=Courier New;" vertex="1" parent="39">
                    <mxGeometry y="65" width="40" height="30" as="geometry"/>
                </mxCell>
                <mxCell id="16" value="d2" style="text;html=1;align=center;verticalAlign=middle;resizable=0;points=[];autosize=1;strokeColor=none;fillColor=none;fontSize=16;fontFamily=Courier New;" vertex="1" parent="39">
                    <mxGeometry y="103.75" width="40" height="30" as="geometry"/>
                </mxCell>
                <mxCell id="17" value="d3" style="text;html=1;align=center;verticalAlign=middle;resizable=0;points=[];autosize=1;strokeColor=none;fillColor=none;fontSize=16;fontFamily=Courier New;" vertex="1" parent="39">
                    <mxGeometry y="145" width="40" height="30" as="geometry"/>
                </mxCell>
                <mxCell id="19" value="" style="endArrow=none;html=1;" edge="1" parent="39">
                    <mxGeometry width="50" height="50" relative="1" as="geometry">
                        <mxPoint x="135" y="103.75" as="sourcePoint"/>
                        <mxPoint x="145" y="93.75" as="targetPoint"/>
                    </mxGeometry>
                </mxCell>
                <mxCell id="21" value="" style="endArrow=none;html=1;" edge="1" parent="39">
                    <mxGeometry width="50" height="50" relative="1" as="geometry">
                        <mxPoint x="45" y="165" as="sourcePoint"/>
                        <mxPoint x="55" y="155" as="targetPoint"/>
                    </mxGeometry>
                </mxCell>
                <mxCell id="22" value="" style="endArrow=none;html=1;" edge="1" parent="39">
                    <mxGeometry width="50" height="50" relative="1" as="geometry">
                        <mxPoint x="45" y="125" as="sourcePoint"/>
                        <mxPoint x="55" y="115" as="targetPoint"/>
                    </mxGeometry>
                </mxCell>
                <mxCell id="23" value="" style="endArrow=none;html=1;" edge="1" parent="39">
                    <mxGeometry width="50" height="50" relative="1" as="geometry">
                        <mxPoint x="45" y="85" as="sourcePoint"/>
                        <mxPoint x="55" y="75" as="targetPoint"/>
                    </mxGeometry>
                </mxCell>
                <mxCell id="24" value="" style="endArrow=none;html=1;" edge="1" parent="39">
                    <mxGeometry width="50" height="50" relative="1" as="geometry">
                        <mxPoint x="45" y="45" as="sourcePoint"/>
                        <mxPoint x="55" y="35" as="targetPoint"/>
                    </mxGeometry>
                </mxCell>
                <mxCell id="25" value="" style="endArrow=none;html=1;" edge="1" parent="39">
                    <mxGeometry width="50" height="50" relative="1" as="geometry">
                        <mxPoint x="90" y="184" as="sourcePoint"/>
                        <mxPoint x="100" y="174" as="targetPoint"/>
                    </mxGeometry>
                </mxCell>
                <mxCell id="26" value="00" style="text;html=1;align=center;verticalAlign=middle;resizable=0;points=[];autosize=1;strokeColor=none;fillColor=none;fontSize=14;fontFamily=Courier New;" vertex="1" parent="39">
                    <mxGeometry x="55" y="25" width="40" height="30" as="geometry"/>
                </mxCell>
                <mxCell id="27" value="01" style="text;html=1;align=center;verticalAlign=middle;resizable=0;points=[];autosize=1;strokeColor=none;fillColor=none;fontSize=14;fontFamily=Courier New;" vertex="1" parent="39">
                    <mxGeometry x="55" y="65" width="40" height="30" as="geometry"/>
                </mxCell>
                <mxCell id="28" value="10" style="text;html=1;align=center;verticalAlign=middle;resizable=0;points=[];autosize=1;strokeColor=none;fillColor=none;fontSize=14;fontFamily=Courier New;" vertex="1" parent="39">
                    <mxGeometry x="55" y="103.75" width="40" height="30" as="geometry"/>
                </mxCell>
                <mxCell id="29" value="11" style="text;html=1;align=center;verticalAlign=middle;resizable=0;points=[];autosize=1;strokeColor=none;fillColor=none;fontSize=14;fontFamily=Courier New;" vertex="1" parent="39">
                    <mxGeometry x="55" y="145" width="40" height="30" as="geometry"/>
                </mxCell>
                <mxCell id="30" value="sel" style="text;html=1;align=center;verticalAlign=middle;resizable=0;points=[];autosize=1;strokeColor=none;fillColor=none;fontSize=16;fontFamily=Courier New;" vertex="1" parent="39">
                    <mxGeometry x="70" y="190" width="50" height="30" as="geometry"/>
                </mxCell>
                <mxCell id="31" value="y" style="text;html=1;align=center;verticalAlign=middle;resizable=0;points=[];autosize=1;strokeColor=none;fillColor=none;fontSize=16;fontFamily=Courier New;" vertex="1" parent="39">
                    <mxGeometry x="152" y="83.75" width="30" height="30" as="geometry"/>
                </mxCell>
                <mxCell id="32" value="2" style="text;html=1;align=center;verticalAlign=middle;resizable=0;points=[];autosize=1;strokeColor=none;fillColor=none;fontSize=14;fontFamily=Courier New;" vertex="1" parent="39">
                    <mxGeometry x="125" y="95" width="30" height="30" as="geometry"/>
                </mxCell>
                <mxCell id="33" value="2" style="text;html=1;align=center;verticalAlign=middle;resizable=0;points=[];autosize=1;strokeColor=none;fillColor=none;fontSize=14;fontFamily=Courier New;" vertex="1" parent="39">
                    <mxGeometry x="35" y="155" width="30" height="30" as="geometry"/>
                </mxCell>
                <mxCell id="34" value="2" style="text;html=1;align=center;verticalAlign=middle;resizable=0;points=[];autosize=1;strokeColor=none;fillColor=none;fontSize=14;fontFamily=Courier New;" vertex="1" parent="39">
                    <mxGeometry x="35" y="115" width="30" height="30" as="geometry"/>
                </mxCell>
                <mxCell id="36" value="2" style="text;html=1;align=center;verticalAlign=middle;resizable=0;points=[];autosize=1;strokeColor=none;fillColor=none;fontSize=14;fontFamily=Courier New;" vertex="1" parent="39">
                    <mxGeometry x="35" y="74.75" width="30" height="30" as="geometry"/>
                </mxCell>
                <mxCell id="37" value="2" style="text;html=1;align=center;verticalAlign=middle;resizable=0;points=[];autosize=1;strokeColor=none;fillColor=none;fontSize=14;fontFamily=Courier New;" vertex="1" parent="39">
                    <mxGeometry x="35" y="35" width="30" height="30" as="geometry"/>
                </mxCell>
                <mxCell id="38" value="2" style="text;html=1;align=center;verticalAlign=middle;resizable=0;points=[];autosize=1;strokeColor=none;fillColor=none;fontSize=14;fontFamily=Courier New;" vertex="1" parent="39">
                    <mxGeometry x="89" y="170" width="30" height="30" as="geometry"/>
                </mxCell>
            </root>
        </mxGraphModel>
    </diagram>
</mxfile>